<?xml version="1.0" encoding="UTF-8" standalone="no"?>
<svg
   xmlns:dc="http://purl.org/dc/elements/1.1/"
   xmlns:cc="http://creativecommons.org/ns#"
   xmlns:rdf="http://www.w3.org/1999/02/22-rdf-syntax-ns#"
   xmlns:svg="http://www.w3.org/2000/svg"
   xmlns="http://www.w3.org/2000/svg"
   xmlns:sodipodi="http://sodipodi.sourceforge.net/DTD/sodipodi-0.dtd"
   xmlns:inkscape="http://www.inkscape.org/namespaces/inkscape"
   width="1792"
   height="1792"
   viewBox="0 0 1792 1792"
   version="1.1"
   id="svg5177"
   sodipodi:docname="CRITICAL.svg"
   inkscape:version="0.92.1 r15371"
   inkscape:export-filename="/mnt/home/thomas/src/snmd/img/notify/CRITICAL.png"
   inkscape:export-xdpi="10.5"
   inkscape:export-ydpi="10.5">
  <metadata
     id="metadata5183">
    <rdf:RDF>
      <cc:Work
         rdf:about="">
        <dc:format>image/svg+xml</dc:format>
        <dc:type
           rdf:resource="http://purl.org/dc/dcmitype/StillImage" />
        <dc:title />
      </cc:Work>
    </rdf:RDF>
  </metadata>
  <defs
     id="defs5181" />
  <sodipodi:namedview
     pagecolor="#ffffff"
     bordercolor="#666666"
     borderopacity="1"
     objecttolerance="10"
     gridtolerance="10"
     guidetolerance="10"
     inkscape:pageopacity="0"
     inkscape:pageshadow="2"
     inkscape:window-width="1920"
     inkscape:window-height="1183"
     id="namedview5179"
     showgrid="false"
     inkscape:zoom="1.4845506"
     inkscape:cx="491.82926"
     inkscape:cy="540.41338"
     inkscape:window-x="0"
     inkscape:window-y="0"
     inkscape:window-maximized="1"
     inkscape:current-layer="svg5177"
     inkscape:pagecheckerboard="false" />
  <rect
     style="fill:#ffffff;fill-opacity:1;stroke:#ffffff;stroke-width:4.97700024;stroke-linecap:round;stroke-linejoin:round;stroke-miterlimit:4;stroke-dasharray:none;stroke-opacity:1"
     id="rect4482"
     width="484.65582"
     height="1028.8783"
     x="679.6012"
     y="449.04309" />
  <path
     d="M1024 1375v-190q0-14-9.5-23.5t-22.5-9.5h-192q-13 0-22.5 9.5t-9.5 23.5v190q0 14 9.5 23.5t22.5 9.5h192q13 0 22.5-9.5t9.5-23.5zm-2-374l18-459q0-12-10-19-13-11-24-11h-220q-11 0-24 11-10 7-10 21l17 457q0 10 10 16.5t24 6.5h185q14 0 23.5-6.5t10.5-16.5zm-14-934l768 1408q35 63-2 126-17 29-46.5 46t-63.5 17h-1536q-34 0-63.5-17t-46.5-46q-37-63-2-126l768-1408q17-31 47-49t65-18 65 18 47 49z"
     id="path5175"
     style="fill:#dc143c;fill-opacity:1" />
</svg>
