<?xml version="1.0" encoding="UTF-8" standalone="no"?>
<svg
   xmlns:dc="http://purl.org/dc/elements/1.1/"
   xmlns:cc="http://creativecommons.org/ns#"
   xmlns:rdf="http://www.w3.org/1999/02/22-rdf-syntax-ns#"
   xmlns:svg="http://www.w3.org/2000/svg"
   xmlns="http://www.w3.org/2000/svg"
   xmlns:sodipodi="http://sodipodi.sourceforge.net/DTD/sodipodi-0.dtd"
   xmlns:inkscape="http://www.inkscape.org/namespaces/inkscape"
   width="1792"
   height="1792"
   viewBox="0 0 1792 1792"
   version="1.1"
   id="svg4566"
   sodipodi:docname="WARNING.svg"
   inkscape:version="0.92.1 r15371"
   inkscape:export-filename="/home/thomas/src/snmd/img/notify/WARNING.png"
   inkscape:export-xdpi="1.71"
   inkscape:export-ydpi="1.71">
  <metadata
     id="metadata4572">
    <rdf:RDF>
      <cc:Work
         rdf:about="">
        <dc:format>image/svg+xml</dc:format>
        <dc:type
           rdf:resource="http://purl.org/dc/dcmitype/StillImage" />
        <dc:title />
      </cc:Work>
    </rdf:RDF>
  </metadata>
  <defs
     id="defs4570" />
  <sodipodi:namedview
     pagecolor="#ffffff"
     bordercolor="#666666"
     borderopacity="1"
     objecttolerance="10"
     gridtolerance="10"
     guidetolerance="10"
     inkscape:pageopacity="0"
     inkscape:pageshadow="2"
     inkscape:window-width="1572"
     inkscape:window-height="883"
     id="namedview4568"
     showgrid="false"
     inkscape:zoom="0.26115876"
     inkscape:cx="331.17539"
     inkscape:cy="558.15511"
     inkscape:window-x="0"
     inkscape:window-y="0"
     inkscape:window-maximized="1"
     inkscape:current-layer="svg4566" />
  <rect
     style="fill:#ffffff;fill-opacity:1;stroke:#ffffff;stroke-width:5.0229826;stroke-linecap:round;stroke-linejoin:round;stroke-miterlimit:4;stroke-dasharray:none;stroke-opacity:1"
     id="rect4482"
     width="484.65582"
     height="1047.9777"
     x="668.99512"
     y="366.28387" />
  <path
     d="M896 128q209 0 385.5 103t279.5 279.5 103 385.5-103 385.5-279.5 279.5-385.5 103-385.5-103-279.5-279.5-103-385.5 103-385.5 279.5-279.5 385.5-103zm128 1247v-190q0-14-9-23.5t-22-9.5h-192q-13 0-23 10t-10 23v190q0 13 10 23t23 10h192q13 0 22-9.5t9-23.5zm-2-344l18-621q0-12-10-18-10-8-24-8h-220q-14 0-24 8-10 6-10 18l17 621q0 10 10 17.5t24 7.5h185q14 0 23.5-7.5t10.5-17.5z"
     id="path4564"
     style="fill:#ffd700;fill-opacity:1" />
</svg>
